<?xml version="1.0" encoding="utf-8"?>
<!-- Generator: Adobe Illustrator 16.0.0, SVG Export Plug-In . SVG Version: 6.00 Build 0)  -->
<!DOCTYPE svg PUBLIC "-//W3C//DTD SVG 1.1//EN" "http://www.w3.org/Graphics/SVG/1.1/DTD/svg11.dtd">
<svg version="1.1" id="Layer_2" xmlns="http://www.w3.org/2000/svg" xmlns:xlink="http://www.w3.org/1999/xlink" x="0px" y="0px"
	 width="200px" height="200px" viewBox="0 0 200 200" enable-background="new 0 0 200 200" xml:space="preserve">
<g>
	<path fill="#999999" d="M141.964,58.042c-3.55-3.55-9.303-3.55-12.856,0L100,87.145L70.891,58.042c-3.55-3.55-9.303-3.55-12.854,0
		c-3.552,3.552-3.552,9.305,0,12.856L87.142,100l-29.106,29.102c-3.552,3.553-3.552,9.305,0,12.856
		c1.774,1.774,4.102,2.663,6.428,2.663c2.325,0,4.651-0.889,6.426-2.663l29.109-29.103l29.108,29.103
		c1.776,1.774,4.104,2.663,6.431,2.663c2.321,0,4.649-0.889,6.426-2.663c3.55-3.552,3.55-9.306,0-12.856L112.857,100l29.105-29.101
		C145.514,67.347,145.514,61.594,141.964,58.042z"/>
	<path fill="#999999" d="M173.712,0H26.297C12.252,0,0.827,11.486,0.827,25.622v148.756c0,14.136,11.425,25.622,25.47,25.622
		h147.415c14.045,0,25.461-11.486,25.461-25.622V25.622C199.173,11.486,187.757,0,173.712,0z M180.99,174.378
		c0,4.103-3.266,7.44-7.278,7.44H26.297c-4.021,0-7.289-3.34-7.289-7.44V25.622c0-4.102,3.269-7.44,7.289-7.44h147.415
		c4.015,0,7.278,3.339,7.278,7.44V174.378z"/>
</g>
</svg>
